<?xml version="1.0" standalone="no"?>
<!DOCTYPE svg PUBLIC "-//W3C//DTD SVG 20010904//EN"
 "http://www.w3.org/TR/2001/REC-SVG-20010904/DTD/svg10.dtd">
<svg version="1.0" xmlns="http://www.w3.org/2000/svg"
 width="570.000000pt" height="600.000000pt" viewBox="0 0 570.000000 600.000000"
 preserveAspectRatio="xMidYMid meet">

<g transform="translate(0.000000,600.000000) scale(0.100000,-0.100000)"
fill="#000000" stroke="none">
<path d="M0 3000 l0 -3000 2850 0 2850 0 0 3000 0 3000 -2850 0 -2850 0 0
-3000z m2759 1266 c41 -8 75 -17 77 -19 2 -2 -21 -89 -52 -193 -31 -104 -61
-204 -66 -223 -8 -29 -13 -32 -36 -27 -108 22 -207 28 -294 17 -344 -44 -620
-283 -709 -616 -30 -112 -30 -298 0 -410 41 -152 112 -274 224 -384 106 -105
204 -162 354 -208 88 -27 89 -27 413 -27 l325 -1 5 292 c4 238 3 294 -8 298
-8 3 -79 5 -158 5 -79 0 -144 3 -144 6 0 3 27 99 61 213 33 113 62 214 65 224
5 14 18 17 82 17 93 0 127 7 112 24 -6 8 -10 122 -10 291 l-1 279 234 234 235
235 193 0 c153 1 209 -2 263 -16 161 -41 336 -154 431 -278 58 -77 116 -200
139 -293 22 -90 22 -249 1 -346 -21 -95 -82 -224 -140 -295 -49 -59 -54 -75
-29 -96 27 -22 95 -128 124 -193 72 -160 82 -381 25 -551 -66 -193 -204 -350
-390 -440 -165 -81 -134 -78 -905 -82 -432 -3 -728 0 -801 6 -322 30 -587 152
-813 377 -249 247 -376 556 -376 914 0 225 41 397 142 593 178 347 522 606
898 678 153 28 381 27 529 -5z"/>
<path d="M3471 4073 c0 -10 -3 -196 -7 -413 l-7 -395 -211 -2 c-116 -1 -212
-6 -214 -11 -4 -13 701 -25 765 -13 150 29 247 146 247 296 0 84 -26 145 -86
204 -69 70 -114 85 -267 89 -73 3 -128 8 -120 12 9 6 5 24 -20 77 -19 37 -36
85 -39 106 -3 26 -8 34 -13 25 -6 -9 -9 -7 -9 9 0 12 -4 24 -9 28 -6 3 -10 -3
-10 -12z"/>
<path d="M3465 2765 c-6 -3 -8 -107 -5 -297 l5 -293 180 0 c207 0 240 9 313
85 62 63 86 122 86 205 0 89 -30 159 -91 216 -79 73 -114 83 -308 86 -93 1
-174 0 -180 -2z"/>
</g>
</svg>
